<svg width="40" height="40" viewBox="0 0 40 40" fill="none" xmlns="http://www.w3.org/2000/svg">
<path d="M20 26.6667C19.0833 26.6667 18.2989 26.3406 17.6467 25.6883C16.9944 25.0361 16.6678 24.2511 16.6667 23.3333C16.6656 22.4156 16.9922 21.6311 17.6467 20.98C18.3011 20.3289 19.0856 20.0022 20 20C20.9144 19.9978 21.6994 20.3244 22.355 20.98C23.0106 21.6356 23.3367 22.42 23.3333 23.3333C23.33 24.2467 23.0039 25.0317 22.355 25.6883C21.7061 26.345 20.9211 26.6711 20 26.6667ZM12.2917 11.6667H27.7083L31.0417 5H8.95833L12.2917 11.6667ZM14 35H26C28.5 35 30.625 34.1322 32.375 32.3967C34.125 30.6611 35 28.5289 35 26C35 24.9444 34.8194 23.9167 34.4583 22.9167C34.0972 21.9167 33.5833 21.0139 32.9167 20.2083L28.5833 15H11.4167L7.08333 20.2083C6.41667 21.0139 5.90278 21.9167 5.54167 22.9167C5.18056 23.9167 5 24.9444 5 26C5 28.5278 5.86833 30.66 7.605 32.3967C9.34167 34.1333 11.4733 35.0011 14 35Z" fill="#51B673"/>
</svg>
